  0
SECTION
  2
HEADER
  9
$ACADVER
  1
AC1014
  9
$HANDSEED
  5
FFFF
  9
$MEASUREMENT
 70
     1
  0
ENDSEC
  0
SECTION
  2
TABLES
  0
TABLE
  2
VPORT
  5
8
330
0
100
AcDbSymbolTable
 70
     4
  0
VPORT
  5
2E
330
8
100
AcDbSymbolTableRecord
100
AcDbViewportTableRecord
  2
*ACTIVE
 70
     0
 10
0.0
 20
0.0
 11
1.0
 21
1.0
 12
210.0
 22
148.5
 13
0.0
 23
0.0
 14
10.0
 24
10.0
 15
10.0
 25
10.0
 16
0.0
 26
0.0
 36
1.0
 17
0.0
 27
0.0
 37
0.0
 40
341.0
 41
1.24
 42
50.0
 43
0.0
 44
0.0
 50
0.0
 51
0.0
 71
     0
 72
   100
 73
     1
 74
     3
 75
     0
 76
     0
 77
     0
 78
     0
  0
ENDTAB
  0
TABLE
  2
LTYPE
  5
5
330
0
100
AcDbSymbolTable
 70
     1
  0
LTYPE
  5
14
330
5
100
AcDbSymbolTableRecord
100
AcDbLinetypeTableRecord
  2
BYBLOCK
 70
     0
  3

 72
    65
 73
     0
 40
0.0
  0
LTYPE
  5
15
330
5
100
AcDbSymbolTableRecord
100
AcDbLinetypeTableRecord
  2
BYLAYER
 70
     0
  3

 72
    65
 73
     0
 40
0.0
  0
LTYPE
  5
16
330
5
100
AcDbSymbolTableRecord
100
AcDbLinetypeTableRecord
  2
CONTINUOUS
 70
     0
  3
Solid line
 72
    65
 73
     0
 40
0.0
  0
ENDTAB
  0
TABLE
  2
LAYER
  5
2
100
AcDbSymbolTable
 70
2
  0
LAYER
  5
50
100
AcDbSymbolTableRecord
100
AcDbLayerTableRecord
  2
0
 70
0
  6
CONTINUOUS
  0
LAYER
  5
51
100
AcDbSymbolTableRecord
100
AcDbLayerTableRecord
  2
Layer_1
 70
0
  6
CONTINUOUS
  0
ENDTAB
  0
TABLE
  2
STYLE
  5
3
330
0
100
AcDbSymbolTable
 70
     1
  0
STYLE
  5
11
330
3
100
AcDbSymbolTableRecord
100
AcDbTextStyleTableRecord
  2
STANDARD
 70
     0
 40
0.0
 41
1.0
 50
0.0
 71
     0
 42
2.5
  3
txt
  4

  0
ENDTAB
  0
TABLE
  2
VIEW
  5
6
330
0
100
AcDbSymbolTable
 70
     0
  0
ENDTAB
  0
TABLE
  2
UCS
  5
7
330
0
100
AcDbSymbolTable
 70
     0
  0
ENDTAB
  0
TABLE
  2
APPID
  5
9
330
0
100
AcDbSymbolTable
 70
     2
  0
APPID
  5
12
330
9
100
AcDbSymbolTableRecord
100
AcDbRegAppTableRecord
  2
ACAD
 70
     0
  0
ENDTAB
  0
TABLE
  2
DIMSTYLE
  5
A
330
0
100
AcDbSymbolTable
 70
     1
  0
DIMSTYLE
105
27
330
A
100
AcDbSymbolTableRecord
100
AcDbDimStyleTableRecord
  2
ISO-25
 70
     0
  3

  4

  5

  6

  7

 40
1.0
 41
2.5
 42
0.625
 43
3.75
 44
1.25
 45
0.0
 46
0.0
 47
0.0
 48
0.0
140
2.5
141
2.5
142
0.0
143
0.03937007874016
144
1.0
145
0.0
146
1.0
147
0.625
 71
     0
 72
     0
 73
     0
 74
     0
 75
     0
 76
     0
 77
     1
 78
     8
170
     0
171
     3
172
     1
173
     0
174
     0
175
     0
176
     0
177
     0
178
     0
270
     2
271
     2
272
     2
273
     2
274
     3
340
11
275
     0
280
     0
281
     0
282
     0
283
     0
284
     8
285
     0
286
     0
287
     3
288
     0
  0
ENDTAB
  0
TABLE
  2
BLOCK_RECORD
  5
1
330
0
100
AcDbSymbolTable
 70
     1
  0
BLOCK_RECORD
  5
1F
330
1
100
AcDbSymbolTableRecord
100
AcDbBlockTableRecord
  2
*MODEL_SPACE
  0
BLOCK_RECORD
  5
1B
330
1
100
AcDbSymbolTableRecord
100
AcDbBlockTableRecord
  2
*PAPER_SPACE
  0
ENDTAB
  0
ENDSEC
  0
SECTION
  2
BLOCKS
  0
BLOCK
  5
20
330
1F
100
AcDbEntity
  8
0
100
AcDbBlockBegin
  2
*MODEL_SPACE
 70
     0
 10
0.0
 20
0.0
 30
0.0
  3
*MODEL_SPACE
  1

  0
ENDBLK
  5
21
330
1F
100
AcDbEntity
  8
0
100
AcDbBlockEnd
  0
BLOCK
  5
1C
330
1B
100
AcDbEntity
 67
     1
  8
0
100
AcDbBlockBegin
  2
*PAPER_SPACE
  1

  0
ENDBLK
  5
1D
330
1B
100
AcDbEntity
 67
     1
  8
0
100
AcDbBlockEnd
  0
ENDSEC
  0
SECTION
  2
ENTITIES
  0
LINE
  5
100
100
AcDbEntity
  8
Layer_1
 62
7
100
AcDbLine
 10
39.584099
 20
187.695623
 30
0.0
 11
39.584099
 21
217.015789
 31
0.0
  0
LINE
  5
101
100
AcDbEntity
  8
Layer_1
 62
7
100
AcDbLine
 10
171.598023
 20
219.280182
 30
0.0
 11
171.598023
 21
61.778578
 31
0.0
  0
LINE
  5
102
100
AcDbEntity
  8
Layer_1
 62
7
100
AcDbLine
 10
69.502116
 20
38.353292
 30
0.0
 11
39.591107
 21
38.353292
 31
0.0
  0
LINE
  5
103
100
AcDbEntity
  8
Layer_1
 62
7
100
AcDbLine
 10
39.584099
 20
61.793567
 30
0.0
 11
39.584099
 21
86.095623
 31
0.0
  0
LINE
  5
104
100
AcDbEntity
  8
Layer_1
 62
7
100
AcDbLine
 10
60.026728
 20
184.280876
 30
0.0
 11
60.026728
 21
216.736431
 31
0.0
  0
LINE
  5
105
100
AcDbEntity
  8
Layer_1
 62
7
100
AcDbLine
 10
60.026728
 20
216.454209
 30
0.0
 11
60.026728
 21
217.018656
 31
0.0
  0
LINE
  5
106
100
AcDbEntity
  8
Layer_1
 62
7
100
AcDbLine
 10
39.584043
 20
61.856398
 30
0.0
 11
39.584043
 21
38.353868
 31
0.0
  0
LINE
  5
107
100
AcDbEntity
  8
Layer_1
 62
7
100
AcDbLine
 10
69.523472
 20
38.353498
 30
0.0
 11
69.523472
 21
36.073671
 31
0.0
  0
LINE
  5
108
100
AcDbEntity
  8
Layer_1
 62
7
100
AcDbLine
 10
69.523472
 20
36.073671
 30
0.0
 11
89.519356
 21
36.073671
 31
0.0
  0
LINE
  5
109
100
AcDbEntity
  8
Layer_1
 62
7
100
AcDbLine
 10
89.519356
 20
36.073671
 30
0.0
 11
89.519356
 21
53.644208
 31
0.0
  0
LINE
  5
10a
100
AcDbEntity
  8
Layer_1
 62
7
100
AcDbLine
 10
89.519356
 20
53.644208
 30
0.0
 11
133.898801
 21
53.644208
 31
0.0
  0
LINE
  5
10b
100
AcDbEntity
  8
Layer_1
 62
7
100
AcDbLine
 10
171.597757
 20
61.793891
 30
0.0
 11
171.597757
 21
53.661771
 31
0.0
  0
LINE
  5
10c
100
AcDbEntity
  8
Layer_1
 62
7
100
AcDbLine
 10
171.597757
 20
53.661771
 30
0.0
 11
170.924240
 21
53.661771
 31
0.0
  0
LINE
  5
10d
100
AcDbEntity
  8
Layer_1
 62
7
100
AcDbLine
 10
60.026824
 20
217.003126
 30
0.0
 11
60.026824
 21
234.575085
 31
0.0
  0
LINE
  5
10e
100
AcDbEntity
  8
Layer_1
 62
7
100
AcDbLine
 10
69.832641
 20
234.574809
 30
0.0
 11
69.832641
 21
236.855125
 31
0.0
  0
LINE
  5
10f
100
AcDbEntity
  8
Layer_1
 62
7
100
AcDbLine
 10
69.832641
 20
236.855125
 30
0.0
 11
89.832823
 21
236.855125
 31
0.0
  0
LINE
  5
110
100
AcDbEntity
  8
Layer_1
 62
7
100
AcDbLine
 10
89.832823
 20
236.855125
 30
0.0
 11
89.832823
 21
219.280811
 31
0.0
  0
LINE
  5
111
100
AcDbEntity
  8
Layer_1
 62
7
100
AcDbLine
 10
89.832823
 20
219.280811
 30
0.0
 11
134.221810
 21
219.280811
 31
0.0
  0
LINE
  5
112
100
AcDbEntity
  8
Layer_1
 62
7
100
AcDbLine
 10
69.642643
 20
234.574558
 30
0.0
 11
60.199532
 21
234.574558
 31
0.0
  0
LINE
  5
113
100
AcDbEntity
  8
Layer_1
 62
7
100
AcDbLine
 10
134.281037
 20
219.280746
 30
0.0
 11
171.706348
 21
219.280746
 31
0.0
  0
LINE
  5
114
100
AcDbEntity
  8
Layer_1
 62
7
100
AcDbLine
 10
133.846677
 20
53.663707
 30
0.0
 11
171.241122
 21
53.663707
 31
0.0
  0
SPLINE
  5
115
100
AcDbEntity
  8
Layer_1
 62
7
100
AcDbSpline
 70
0
 71
3
 72
34
 73
30
 74
28
 40
0.000000
 40
0.000000
 40
0.000000
 40
0.000000
 40
6.614550
 40
13.191250
 40
19.732712
 40
26.063411
 40
32.431879
 40
38.817841
 40
45.059550
 40
51.283593
 40
57.500666
 40
63.522536
 40
69.550528
 40
75.576869
 40
81.434569
 40
87.292913
 40
93.150613
 40
99.176954
 40
105.204946
 40
111.226818
 40
117.443890
 40
123.667933
 40
129.909642
 40
136.295605
 40
142.664072
 40
148.994772
 40
155.536234
 40
162.112933
 40
168.727483
 40
168.727483
 40
168.727483
 40
168.727483
 10
39.453597
 20
86.061985
 30
0.0
 10
41.649604
 20
86.260234
 30
0.0
 10
46.029051
 20
86.655596
 30
0.0
 10
52.551244
 20
87.538784
 30
0.0
 10
58.884857
 20
88.993905
 30
0.0
 10
64.903453
 20
91.263066
 30
0.0
 10
70.553859
 20
94.216564
 30
0.0
 10
75.809150
 20
97.771704
 30
0.0
 10
80.616552
 20
101.837365
 30
0.0
 10
84.900061
 20
106.377090
 30
0.0
 10
88.566487
 20
111.340083
 30
0.0
 10
91.548360
 20
116.666955
 30
0.0
 10
93.823510
 20
122.263241
 30
0.0
 10
95.354625
 20
128.052063
 30
0.0
 10
96.107384
 20
133.934585
 30
0.0
 10
96.107384
 20
139.808154
 30
0.0
 10
95.354625
 20
145.690676
 30
0.0
 10
93.823509
 20
151.479498
 30
0.0
 10
91.548358
 20
157.075783
 30
0.0
 10
88.566484
 20
162.402655
 30
0.0
 10
84.900058
 20
167.365648
 30
0.0
 10
80.616549
 20
171.905373
 30
0.0
 10
75.809148
 20
175.971035
 30
0.0
 10
70.553857
 20
179.526174
 30
0.0
 10
64.903450
 20
182.479673
 30
0.0
 10
58.884854
 20
184.748835
 30
0.0
 10
52.551240
 20
186.203952
 30
0.0
 10
46.029047
 20
187.087141
 30
0.0
 10
41.649601
 20
187.482504
 30
0.0
 10
39.453594
 20
187.680753
 30
0.0
 11
39.453597
 21
86.061985
 31
0.0
 11
46.036743
 21
86.705772
 31
0.0
 11
52.546826
 21
87.639475
 31
0.0
 11
58.910782
 21
89.153010
 31
0.0
 11
64.838798
 21
91.374807
 31
0.0
 11
70.486950
 21
94.316874
 31
0.0
 11
75.779176
 21
97.890788
 31
0.0
 11
80.540624
 21
101.926570
 31
0.0
 11
84.806089
 21
106.459176
 31
0.0
 11
88.493631
 21
111.464576
 31
0.0
 11
91.434886
 21
116.719283
 31
0.0
 11
93.701982
 21
122.304707
 31
0.0
 11
95.237475
 21
128.132146
 31
0.0
 11
95.983100
 21
133.942197
 31
0.0
 11
95.983100
 21
139.800541
 31
0.0
 11
95.237475
 21
145.610592
 31
0.0
 11
93.701981
 21
151.438031
 31
0.0
 11
91.434884
 21
157.023455
 31
0.0
 11
88.493628
 21
162.278162
 31
0.0
 11
84.806086
 21
167.283562
 31
0.0
 11
80.540621
 21
171.816169
 31
0.0
 11
75.779173
 21
175.851951
 31
0.0
 11
70.486947
 21
179.425864
 31
0.0
 11
64.838795
 21
182.367932
 31
0.0
 11
58.910779
 21
184.589728
 31
0.0
 11
52.546822
 21
186.103262
 31
0.0
 11
46.036739
 21
187.036965
 31
0.0
 11
39.453594
 21
187.680753
 31
0.0
  0
ENDSEC
  0
SECTION
  2
OBJECTS
  0
DICTIONARY
  5
C
330
0
100
AcDbDictionary
  3
ACAD_GROUP
350
D
  3
ACAD_MLINESTYLE
350
17
  0
DICTIONARY
  5
D
330
C
100
AcDbDictionary
  0
DICTIONARY
  5
1A
330
C
100
AcDbDictionary
  0
DICTIONARY
  5
17
330
C
100
AcDbDictionary
  3
STANDARD
350
18
  0
DICTIONARY
  5
19
330
C
100
AcDbDictionary
  0
ENDSEC
  0
EOF
