  0
SECTION
  2
HEADER
  9
$ACADVER
  1
AC1009
  9
$INSBASE
 10
0.0
 20
0.0
 30
0.0
  9
$EXTMIN
 10
0.0
 20
0.0
 30
0.0
  9
$EXTMAX
 10
0.0
 20
0.0
 30
0.0
  0
ENDSEC
  0
SECTION
  2
TABLES
  0
TABLE
  2
VPORT
 70
0
  0
ENDTAB
  0
TABLE
  2
LTYPE
 70
1
  0
LTYPE
  2
CONTINUOUS
 70
0
  3
Solid line
 72
65
 73
0
 40
0.0
  0
ENDTAB
  0
TABLE
  2
LAYER
 70
1
  0
LAYER
  2
0
 70
64
 62
7
  6
continuous
  0
ENDTAB
  0
TABLE
  2
STYLE
 70
1
  0
STYLE
  2
STANDARD
 70
0
 40
0
 41
1.0
 50
0.0
 71
0
 42
1
 3
ARIAL.TTF
 4

  0
ENDTAB
  0
TABLE
  2
VIEW
 70
0
  0
ENDTAB
  0
ENDSEC
  0
SECTION
  2
BLOCKS
  0
ENDSEC
  0
SECTION
  2
ENTITIES
  0
LINE
  8
Layer_1
 62
0
 10
39.584099
 20
187.695623
 30
0.0
 11
39.584099
 21
217.015789
 31
0.0
  0
LINE
  8
Layer_1
 62
0
 10
171.598023
 20
219.280182
 30
0.0
 11
171.598023
 21
61.778578
 31
0.0
  0
LINE
  8
Layer_1
 62
0
 10
69.502116
 20
38.353292
 30
0.0
 11
39.591107
 21
38.353292
 31
0.0
  0
LINE
  8
Layer_1
 62
0
 10
39.584099
 20
61.793567
 30
0.0
 11
39.584099
 21
86.095623
 31
0.0
  0
LINE
  8
Layer_1
 62
0
 10
60.026728
 20
184.280876
 30
0.0
 11
60.026728
 21
216.736431
 31
0.0
  0
LINE
  8
Layer_1
 62
0
 10
60.026728
 20
216.454209
 30
0.0
 11
60.026728
 21
217.018656
 31
0.0
  0
LINE
  8
Layer_1
 62
0
 10
39.584043
 20
61.856398
 30
0.0
 11
39.584043
 21
38.353868
 31
0.0
  0
LINE
  8
Layer_1
 62
0
 10
69.523472
 20
38.353498
 30
0.0
 11
69.523472
 21
36.073671
 31
0.0
  0
LINE
  8
Layer_1
 62
0
 10
69.523472
 20
36.073671
 30
0.0
 11
89.519356
 21
36.073671
 31
0.0
  0
LINE
  8
Layer_1
 62
0
 10
89.519356
 20
36.073671
 30
0.0
 11
89.519356
 21
53.644208
 31
0.0
  0
LINE
  8
Layer_1
 62
0
 10
89.519356
 20
53.644208
 30
0.0
 11
133.898801
 21
53.644208
 31
0.0
  0
LINE
  8
Layer_1
 62
0
 10
171.597757
 20
61.793891
 30
0.0
 11
171.597757
 21
53.661771
 31
0.0
  0
LINE
  8
Layer_1
 62
0
 10
171.597757
 20
53.661771
 30
0.0
 11
170.92424
 21
53.661771
 31
0.0
  0
LINE
  8
Layer_1
 62
0
 10
60.026824
 20
217.003126
 30
0.0
 11
60.026824
 21
234.575085
 31
0.0
  0
LINE
  8
Layer_1
 62
0
 10
69.832641
 20
234.574809
 30
0.0
 11
69.832641
 21
236.855125
 31
0.0
  0
LINE
  8
Layer_1
 62
0
 10
69.832641
 20
236.855125
 30
0.0
 11
89.832823
 21
236.855125
 31
0.0
  0
LINE
  8
Layer_1
 62
0
 10
89.832823
 20
236.855125
 30
0.0
 11
89.832823
 21
219.280811
 31
0.0
  0
LINE
  8
Layer_1
 62
0
 10
89.832823
 20
219.280811
 30
0.0
 11
134.22181
 21
219.280811
 31
0.0
  0
LINE
  8
Layer_1
 62
0
 10
69.642643
 20
234.574558
 30
0.0
 11
60.199532
 21
234.574558
 31
0.0
  0
LINE
  8
Layer_1
 62
0
 10
134.281037
 20
219.280746
 30
0.0
 11
171.706348
 21
219.280746
 31
0.0
  0
LINE
  8
Layer_1
 62
0
 10
133.846677
 20
53.663707
 30
0.0
 11
171.241122
 21
53.663707
 31
0.0
  0
POLYLINE
  8
Layer_1
 62
0
 70
0
 66
1
 10
0.0
 20
0.0
 30
0.0
  0
VERTEX
  8
Layer_1
 10
39.453597
 20
86.061985
 30
0.0
  0
VERTEX
  8
Layer_1
 10
44.394207864
 20
86.5289038332
 30
0.0
  0
VERTEX
  8
Layer_1
 10
49.321645805
 20
87.1203931717
 30
0.0
  0
VERTEX
  8
Layer_1
 10
54.2129063844
 20
87.9645393042
 30
0.0
  0
VERTEX
  8
Layer_1
 10
59.023309218
 20
89.1872700078
 30
0.0
  0
VERTEX
  8
Layer_1
 10
63.6904880281
 20
90.8772368666
 30
0.0
  0
VERTEX
  8
Layer_1
 10
68.1731506296
 20
93.0095074377
 30
0.0
  0
VERTEX
  8
Layer_1
 10
72.4435203922
 20
95.5394203032
 30
0.0
  0
VERTEX
  8
Layer_1
 10
76.4787846552
 20
98.429865343
 30
0.0
  0
VERTEX
  8
Layer_1
 10
80.2517248046
 20
101.654869558
 30
0.0
  0
VERTEX
  8
Layer_1
 10
83.7220904279
 20
105.203603814
 30
0.0
  0
VERTEX
  8
Layer_1
 10
86.8436516403
 20
109.063020915
 30
0.0
  0
VERTEX
  8
Layer_1
 10
89.567891145
 20
113.212130233
 30
0.0
  0
VERTEX
  8
Layer_1
 10
91.855451617
 20
117.617221989
 30
0.0
  0
VERTEX
  8
Layer_1
 10
93.6783072185
 20
122.23400815
 30
0.0
  0
VERTEX
  8
Layer_1
 10
95.006113739
 20
127.016888171
 30
0.0
  0
VERTEX
  8
Layer_1
 10
95.8087654406
 20
131.915026691
 30
0.0
  0
VERTEX
  8
Layer_1
 10
96.0763131802
 20
136.87137
 30
0.0
  0
VERTEX
  8
Layer_1
 10
95.808765326
 20
141.827713304
 30
0.0
  0
VERTEX
  8
Layer_1
 10
95.0061132515
 20
146.725851805
 30
0.0
  0
VERTEX
  8
Layer_1
 10
93.6783059327
 20
151.508731519
 30
0.0
  0
VERTEX
  8
Layer_1
 10
91.8554495798
 20
156.125516702
 30
0.0
  0
VERTEX
  8
Layer_1
 10
89.5678884687
 20
160.530607869
 30
0.0
  0
VERTEX
  8
Layer_1
 10
86.8436487581
 20
164.679716976
 30
0.0
  0
VERTEX
  8
Layer_1
 10
83.7220875695
 20
168.53913404
 30
0.0
  0
VERTEX
  8
Layer_1
 10
80.251722085
 20
172.087868564
 30
0.0
  0
VERTEX
  8
Layer_1
 10
76.4787825984
 20
175.312873146
 30
0.0
  0
VERTEX
  8
Layer_1
 10
72.443518627
 20
178.203317939
 30
0.0
  0
VERTEX
  8
Layer_1
 10
68.1731486183
 20
180.733230829
 30
0.0
  0
VERTEX
  8
Layer_1
 10
63.6904857009
 20
182.865502075
 30
0.0
  0
VERTEX
  8
Layer_1
 10
59.0233067012
 20
184.555468999
 30
0.0
  0
VERTEX
  8
Layer_1
 10
54.2129033444
 20
185.778197945
 30
0.0
  0
VERTEX
  8
Layer_1
 10
49.3216423441
 20
186.622343376
 30
0.0
  0
VERTEX
  8
Layer_1
 10
44.394204534
 20
187.213833546
 30
0.0
  0
VERTEX
  8
Layer_1
 10
39.453594
 20
187.680753
 30
0.0
  0
SEQEND
  8
Layer_1
  0
ENDSEC
  0
EOF
