G04 #@! TF.FileFunction,Drawing*
%FSLAX46Y46*%
G04 Gerber Fmt 4.6, Leading zero omitted, Abs format (unit mm)*
G04 Created by KiCad (PCBNEW 4.0.5) date 2016 December 23, Friday 11:17:07*
%MOMM*%
%LPD*%
G01*
G04 APERTURE LIST*
%ADD10C,0.150000*%
%ADD11C,0.200000*%
%ADD12C,0.250000*%
G04 APERTURE END LIST*
D10*
D11*
X273670000Y-107370000D02*
X273670000Y-107330000D01*
X153170000Y-107370000D02*
X273670000Y-107370000D01*
X166800000Y-140590000D02*
X259030000Y-140590000D01*
D12*
X243757529Y-150577868D02*
X244424192Y-150575405D01*
X243999317Y-151576981D01*
X245281329Y-150572238D02*
X244805141Y-150573997D01*
X244759282Y-151050360D01*
X244806725Y-151002565D01*
X244901786Y-150954595D01*
X245139880Y-150953715D01*
X245235294Y-151000982D01*
X245283088Y-151048425D01*
X245331059Y-151143487D01*
X245331939Y-151381580D01*
X245284672Y-151476994D01*
X245237229Y-151524788D01*
X245142168Y-151572759D01*
X244904073Y-151573639D01*
X244808660Y-151526372D01*
X244760865Y-151478929D01*
X245808653Y-151522677D02*
X245808829Y-151570296D01*
X245761562Y-151665709D01*
X245714120Y-151713503D01*
X246138465Y-150569071D02*
X246805127Y-150566607D01*
X246380253Y-151568184D01*
X247330516Y-150993240D02*
X247235103Y-150945973D01*
X247187308Y-150898531D01*
X247139338Y-150803469D01*
X247139162Y-150755851D01*
X247186429Y-150660437D01*
X247233871Y-150612643D01*
X247328933Y-150564672D01*
X247519409Y-150563968D01*
X247614822Y-150611235D01*
X247662616Y-150658678D01*
X247710587Y-150753739D01*
X247710763Y-150801358D01*
X247663496Y-150896771D01*
X247616053Y-150944566D01*
X247520992Y-150992536D01*
X247330516Y-150993240D01*
X247235455Y-151041211D01*
X247188012Y-151089005D01*
X247140745Y-151184420D01*
X247141449Y-151374894D01*
X247189420Y-151469956D01*
X247237214Y-151517398D01*
X247332628Y-151564665D01*
X247523103Y-151563961D01*
X247618165Y-151515991D01*
X247665608Y-151468196D01*
X247712874Y-151372783D01*
X247712171Y-151182308D01*
X247664200Y-151087246D01*
X247616405Y-151039803D01*
X247520992Y-150992536D01*
X248665953Y-151559739D02*
X248094528Y-151561850D01*
X248380240Y-151560794D02*
X248376545Y-150560801D01*
X248281835Y-150704009D01*
X248186950Y-150799598D01*
X248091888Y-150847569D01*
X249856420Y-151555340D02*
X249853957Y-150888678D01*
X249854309Y-150983915D02*
X249901752Y-150936120D01*
X249996813Y-150888150D01*
X250139670Y-150887622D01*
X250235084Y-150934889D01*
X250283054Y-151029950D01*
X250284990Y-151553757D01*
X250283054Y-151029950D02*
X250330321Y-150934537D01*
X250425382Y-150886566D01*
X250568238Y-150886038D01*
X250663652Y-150933305D01*
X250711622Y-151028367D01*
X250713558Y-151552173D01*
X251189744Y-151550414D02*
X251187281Y-150883751D01*
X251187633Y-150978988D02*
X251235076Y-150931194D01*
X251330137Y-150883223D01*
X251472994Y-150882695D01*
X251568407Y-150929962D01*
X251616378Y-151025024D01*
X251618313Y-151548830D01*
X251616378Y-151025024D02*
X251663645Y-150929610D01*
X251758706Y-150881640D01*
X251901562Y-150881112D01*
X251996976Y-150928379D01*
X252044946Y-151023440D01*
X252046882Y-151547246D01*
X285840000Y-150970000D02*
X210060000Y-151250000D01*
X285840000Y-150970000D02*
X285840000Y-150970000D01*
X210060000Y-151250000D02*
X210060000Y-151250000D01*
X210060000Y-151250000D02*
X211184329Y-150659421D01*
X210060000Y-151250000D02*
X211188662Y-151832254D01*
X285840000Y-150970000D02*
X284711338Y-150387746D01*
X285840000Y-150970000D02*
X284715671Y-151560579D01*
X167874524Y-150692381D02*
X168541191Y-150692381D01*
X168112619Y-151692381D01*
X169398334Y-150692381D02*
X168922143Y-150692381D01*
X168874524Y-151168571D01*
X168922143Y-151120952D01*
X169017381Y-151073333D01*
X169255477Y-151073333D01*
X169350715Y-151120952D01*
X169398334Y-151168571D01*
X169445953Y-151263810D01*
X169445953Y-151501905D01*
X169398334Y-151597143D01*
X169350715Y-151644762D01*
X169255477Y-151692381D01*
X169017381Y-151692381D01*
X168922143Y-151644762D01*
X168874524Y-151597143D01*
X169922143Y-151644762D02*
X169922143Y-151692381D01*
X169874524Y-151787619D01*
X169826905Y-151835238D01*
X170493571Y-151120952D02*
X170398333Y-151073333D01*
X170350714Y-151025714D01*
X170303095Y-150930476D01*
X170303095Y-150882857D01*
X170350714Y-150787619D01*
X170398333Y-150740000D01*
X170493571Y-150692381D01*
X170684048Y-150692381D01*
X170779286Y-150740000D01*
X170826905Y-150787619D01*
X170874524Y-150882857D01*
X170874524Y-150930476D01*
X170826905Y-151025714D01*
X170779286Y-151073333D01*
X170684048Y-151120952D01*
X170493571Y-151120952D01*
X170398333Y-151168571D01*
X170350714Y-151216190D01*
X170303095Y-151311429D01*
X170303095Y-151501905D01*
X170350714Y-151597143D01*
X170398333Y-151644762D01*
X170493571Y-151692381D01*
X170684048Y-151692381D01*
X170779286Y-151644762D01*
X170826905Y-151597143D01*
X170874524Y-151501905D01*
X170874524Y-151311429D01*
X170826905Y-151216190D01*
X170779286Y-151168571D01*
X170684048Y-151120952D01*
X171207857Y-150692381D02*
X171826905Y-150692381D01*
X171493571Y-151073333D01*
X171636429Y-151073333D01*
X171731667Y-151120952D01*
X171779286Y-151168571D01*
X171826905Y-151263810D01*
X171826905Y-151501905D01*
X171779286Y-151597143D01*
X171731667Y-151644762D01*
X171636429Y-151692381D01*
X171350714Y-151692381D01*
X171255476Y-151644762D01*
X171207857Y-151597143D01*
X172445952Y-150692381D02*
X172541191Y-150692381D01*
X172636429Y-150740000D01*
X172684048Y-150787619D01*
X172731667Y-150882857D01*
X172779286Y-151073333D01*
X172779286Y-151311429D01*
X172731667Y-151501905D01*
X172684048Y-151597143D01*
X172636429Y-151644762D01*
X172541191Y-151692381D01*
X172445952Y-151692381D01*
X172350714Y-151644762D01*
X172303095Y-151597143D01*
X172255476Y-151501905D01*
X172207857Y-151311429D01*
X172207857Y-151073333D01*
X172255476Y-150882857D01*
X172303095Y-150787619D01*
X172350714Y-150740000D01*
X172445952Y-150692381D01*
X173969762Y-151692381D02*
X173969762Y-151025714D01*
X173969762Y-151120952D02*
X174017381Y-151073333D01*
X174112619Y-151025714D01*
X174255477Y-151025714D01*
X174350715Y-151073333D01*
X174398334Y-151168571D01*
X174398334Y-151692381D01*
X174398334Y-151168571D02*
X174445953Y-151073333D01*
X174541191Y-151025714D01*
X174684048Y-151025714D01*
X174779286Y-151073333D01*
X174826905Y-151168571D01*
X174826905Y-151692381D01*
X175303095Y-151692381D02*
X175303095Y-151025714D01*
X175303095Y-151120952D02*
X175350714Y-151073333D01*
X175445952Y-151025714D01*
X175588810Y-151025714D01*
X175684048Y-151073333D01*
X175731667Y-151168571D01*
X175731667Y-151692381D01*
X175731667Y-151168571D02*
X175779286Y-151073333D01*
X175874524Y-151025714D01*
X176017381Y-151025714D01*
X176112619Y-151073333D01*
X176160238Y-151168571D01*
X176160238Y-151692381D01*
X209980000Y-151240000D02*
X134150000Y-151240000D01*
X209980000Y-151240000D02*
X209980000Y-151240000D01*
X134150000Y-151240000D02*
X134150000Y-151240000D01*
X134150000Y-151240000D02*
X135276503Y-150653580D01*
X134150000Y-151240000D02*
X135276503Y-151826420D01*
X209980000Y-151240000D02*
X208853497Y-150653580D01*
X209980000Y-151240000D02*
X208853497Y-151826420D01*
X211540961Y-177120122D02*
X211540719Y-176643931D01*
X211064504Y-176596554D01*
X211112148Y-176644149D01*
X211159815Y-176739363D01*
X211159936Y-176977459D01*
X211112366Y-177072721D01*
X211064771Y-177120364D01*
X210969556Y-177168032D01*
X210731461Y-177168153D01*
X210636199Y-177120582D01*
X210588556Y-177072987D01*
X210540888Y-176977774D01*
X210540767Y-176739678D01*
X210588338Y-176644415D01*
X210635933Y-176596772D01*
X210541227Y-177644439D02*
X210541324Y-177834915D01*
X210588991Y-177930130D01*
X210636635Y-177977725D01*
X210779540Y-178072890D01*
X210970040Y-178120412D01*
X211350993Y-178120219D01*
X211446207Y-178072551D01*
X211493802Y-178024908D01*
X211541372Y-177929646D01*
X211541276Y-177739169D01*
X211493608Y-177643955D01*
X211445965Y-177596360D01*
X211350703Y-177548790D01*
X211112608Y-177548911D01*
X211017394Y-177596578D01*
X210969798Y-177644222D01*
X210922228Y-177739484D01*
X210922324Y-177929961D01*
X210969992Y-178025174D01*
X211017636Y-178072769D01*
X211112898Y-178120340D01*
X210589330Y-178596796D02*
X210541711Y-178596820D01*
X210446449Y-178549250D01*
X210398806Y-178501655D01*
X211542026Y-179215359D02*
X211542075Y-179310598D01*
X211494504Y-179405860D01*
X211446909Y-179453503D01*
X211351695Y-179501171D01*
X211161244Y-179548886D01*
X210923148Y-179549007D01*
X210732647Y-179501485D01*
X210637385Y-179453915D01*
X210589742Y-179406320D01*
X210542075Y-179311106D01*
X210542026Y-179215867D01*
X210589597Y-179120605D01*
X210637192Y-179072962D01*
X210732405Y-179025294D01*
X210922857Y-178977579D01*
X211160953Y-178977457D01*
X211351453Y-179024980D01*
X211446715Y-179072550D01*
X211494359Y-179120145D01*
X211542026Y-179215359D01*
X211542510Y-180167740D02*
X211542559Y-180262979D01*
X211494988Y-180358241D01*
X211447393Y-180405884D01*
X211352180Y-180453551D01*
X211161728Y-180501267D01*
X210923632Y-180501388D01*
X210733132Y-180453866D01*
X210637870Y-180406296D01*
X210590226Y-180358701D01*
X210542559Y-180263487D01*
X210542511Y-180168248D01*
X210590081Y-180072986D01*
X210637676Y-180025343D01*
X210732890Y-179977675D01*
X210923341Y-179929959D01*
X211161437Y-179929838D01*
X211351938Y-179977361D01*
X211447200Y-180024931D01*
X211494843Y-180072526D01*
X211542510Y-180167740D01*
X211542995Y-181120121D02*
X211543043Y-181215359D01*
X211495472Y-181310622D01*
X211447878Y-181358265D01*
X211352664Y-181405932D01*
X211162212Y-181453648D01*
X210924116Y-181453769D01*
X210733616Y-181406247D01*
X210638354Y-181358677D01*
X210590711Y-181311082D01*
X210543043Y-181215868D01*
X210542995Y-181120629D01*
X210590565Y-181025367D01*
X210638160Y-180977724D01*
X210733374Y-180930056D01*
X210923826Y-180882340D01*
X211161922Y-180882219D01*
X211352422Y-180929741D01*
X211447684Y-180977312D01*
X211495327Y-181024907D01*
X211542995Y-181120121D01*
X210543770Y-182644439D02*
X211210436Y-182644100D01*
X211115199Y-182644148D02*
X211162842Y-182691743D01*
X211210509Y-182786957D01*
X211210582Y-182929815D01*
X211163011Y-183025077D01*
X211067797Y-183072744D01*
X210543987Y-183073011D01*
X211067797Y-183072744D02*
X211163060Y-183120315D01*
X211210727Y-183215529D01*
X211210800Y-183358386D01*
X211163229Y-183453648D01*
X211068015Y-183501315D01*
X210544205Y-183501582D01*
X210544448Y-183977772D02*
X211211114Y-183977433D01*
X211115876Y-183977481D02*
X211163520Y-184025076D01*
X211211187Y-184120290D01*
X211211260Y-184263148D01*
X211163689Y-184358410D01*
X211068475Y-184406077D01*
X210544665Y-184406344D01*
X211068475Y-184406077D02*
X211163738Y-184453648D01*
X211211405Y-184548862D01*
X211211478Y-184691719D01*
X211163907Y-184786981D01*
X211068693Y-184834648D01*
X210544883Y-184834914D01*
X210010183Y-210239955D02*
X209980183Y-151239955D01*
X209920000Y-210240000D02*
X212010182Y-210238939D01*
X209890000Y-151240000D02*
X211980182Y-151238939D01*
X209980183Y-151239955D02*
X210567176Y-152366160D01*
X209980183Y-151239955D02*
X209394336Y-152366756D01*
X210010183Y-210239955D02*
X210596030Y-209113154D01*
X210010183Y-210239955D02*
X209423190Y-209113750D01*
M02*
