M48
;DRILL file {KiCad 4.0.4+e1-6308~48~ubuntu14.04.1-stable} date Mon Nov 14 14:34:11 2016
;FORMAT={-:-/ absolute / metric / decimal}
FMAT,2
METRIC,TZ
T1C0.180
T2C0.635
T3C0.800
T4C1.000
T5C1.001
T6C1.016
%
G90
G05
M71
T1
X162.992Y-142.451
X163.372Y-142.451
X166.454Y-170.335
X166.834Y-170.335
X167.288Y-170.348
X167.432Y-157.737
X167.668Y-170.348
X167.701Y-158.006
X182.014Y-184.211
X182.394Y-184.211
X185.052Y-195.44
X185.321Y-195.171
X185.616Y-192.778
X185.675Y-194.886
X185.885Y-192.509
X185.944Y-194.618
X185.999Y-194.136
X186.027Y-192.062
X186.268Y-193.868
X186.296Y-191.794
X186.649Y-191.508
X186.904Y-190.578
X186.918Y-191.239
X187.172Y-190.31
X187.455Y-189.953
X187.724Y-189.685
X187.843Y-174.191
X188.112Y-174.46
X190.703Y-195.934
X190.703Y-196.314
X190.724Y-195.1
X190.724Y-195.48
X190.952Y-194.307
X190.952Y-194.687
X192.668Y-193.565
X192.668Y-193.945
X192.712Y-191.065
X192.712Y-191.445
X192.716Y-192.733
X192.716Y-193.113
X192.723Y-191.899
X192.723Y-192.279
X192.752Y-190.232
X192.752Y-190.612
X209.759Y-173.49
X210.139Y-173.49
X219.799Y-201.558
X220.068Y-201.29
X221.021Y-203.969
X221.021Y-204.349
X223.413Y-189.403
X223.413Y-189.783
X224.772Y-202.775
X225.041Y-202.507
X225.344Y-203.969
X225.344Y-204.349
X256.566Y-146.444
X256.946Y-146.444
X260.404Y-187.858
X260.672Y-187.589
X263.186Y-188.254
X263.454Y-187.986
X265.186Y-188.054
X265.454Y-187.786
X267.346Y-187.924
X267.614Y-187.656
X269.706Y-187.874
X269.974Y-187.606
X270.98Y-108.32
X271.36Y-108.32
X272.276Y-187.764
X272.544Y-187.496
X274.36Y-124.2
X274.36Y-124.58
X288.13Y-90.63
X288.13Y-91.01
T2
X124.879Y-132.821
X125.076Y-90.562
X125.16Y-89.31
X125.68Y-98.9
X135.852Y-185.86
X136.525Y-186.899
X138.16Y-90.85
X138.704Y-113.81
X139.65Y-89.42
X139.752Y-144.58
X140.26Y-150.595
X140.356Y-113.78
X140.576Y-123.618
X141.26Y-132.35
X155.66Y-133.65
X155.902Y-143.696
X159.79Y-141.97
X173.733Y-175.847
X174.886Y-173.526
X183.756Y-183.694
X187.29Y-164.56
X189.6Y-189.509
X194.5Y-209.54
X204.59Y-171.72
X266.911Y-146.761
X266.929Y-95.413
X268.21Y-141.25
X269.42Y-130.21
X272.05Y-142.38
X272.135Y-129.985
X276.16Y-125.92
X278.48Y-91.72
X279.255Y-108.5
X281.83Y-106.53
X284.366Y-98.274
X285.214Y-100.71
T3
X135.71Y-87.1
X135.71Y-94.72
X138.25Y-87.1
X138.25Y-94.72
X140.79Y-87.1
X140.79Y-94.72
X143.33Y-87.1
X143.33Y-94.72
X145.73Y-97.46
X145.73Y-100.
X145.73Y-102.54
X145.73Y-105.08
X149.47Y-120.64
X149.47Y-128.26
X152.01Y-120.64
X152.01Y-128.26
X153.35Y-97.46
X153.35Y-100.
X153.35Y-102.54
X153.35Y-105.08
X154.55Y-120.64
X154.55Y-128.26
X157.09Y-120.64
X157.09Y-128.26
X159.31Y-130.68
X159.31Y-133.22
X159.31Y-135.76
X159.31Y-138.3
X166.93Y-130.68
X166.93Y-133.22
X166.93Y-135.76
X166.93Y-138.3
X196.23Y-152.38
X196.23Y-160.
X198.77Y-152.38
X198.77Y-160.
X201.31Y-152.38
X201.31Y-160.
X203.85Y-152.38
X203.85Y-160.
X206.15Y-162.54
X206.15Y-165.08
X206.15Y-167.62
X206.15Y-170.16
X213.77Y-162.54
X213.77Y-165.08
X213.77Y-167.62
X213.77Y-170.16
X253.28Y-130.68
X253.28Y-133.22
X253.28Y-135.76
X253.28Y-138.3
X260.9Y-130.68
X260.9Y-133.22
X260.9Y-135.76
X260.9Y-138.3
X263.23Y-120.48
X263.23Y-128.1
X265.77Y-120.48
X265.77Y-128.1
X267.44Y-97.45
X267.44Y-99.99
X267.44Y-102.53
X267.44Y-105.07
X268.31Y-120.48
X268.31Y-128.1
X270.85Y-120.48
X270.85Y-128.1
X275.06Y-97.45
X275.06Y-99.99
X275.06Y-102.53
X275.06Y-105.07
X277.5Y-87.12
X277.5Y-94.74
X280.04Y-87.12
X280.04Y-94.74
X282.58Y-87.12
X282.58Y-94.74
X285.12Y-87.12
X285.12Y-94.74
T4
X147.65Y-203.21
X147.65Y-205.75
X150.19Y-203.21
X150.19Y-205.75
X152.73Y-203.21
X152.73Y-205.75
X155.27Y-203.21
X155.27Y-205.75
X157.81Y-203.21
X157.81Y-205.75
X238.02Y-202.13
X238.02Y-204.67
X240.56Y-202.13
X240.56Y-204.67
X243.1Y-202.13
X243.1Y-204.67
X245.64Y-202.13
X245.64Y-204.67
X248.18Y-202.13
X248.18Y-204.67
X250.72Y-202.13
X250.72Y-204.67
X253.26Y-202.13
X253.26Y-204.67
X255.8Y-202.13
X255.8Y-204.67
X258.34Y-202.13
X258.34Y-204.67
X260.88Y-202.13
X260.88Y-204.67
X263.42Y-202.13
X263.42Y-204.67
X265.96Y-202.13
X265.96Y-204.67
X268.5Y-202.13
X268.5Y-204.67
X271.04Y-202.13
X271.04Y-204.67
X273.58Y-202.13
X273.58Y-204.67
X276.12Y-202.13
X276.12Y-204.67
X278.66Y-202.13
X278.66Y-204.67
T5
X175.27Y-208.48
X185.43Y-208.48
T6
X124.58Y-105.98
X125.07Y-129.24
X128.94Y-108.16
X128.98Y-87.85
X129.98Y-91.77
X130.48Y-98.07
X130.48Y-100.61
X130.48Y-103.15
X130.48Y-105.69
X133.02Y-98.07
X133.02Y-100.61
X133.02Y-103.15
X133.02Y-105.69
X133.16Y-118.3
X136.86Y-101.82
X142.53Y-141.73
X143.25Y-131.83
X143.25Y-134.37
X143.25Y-136.91
X143.25Y-139.45
X144.09Y-121.94
X144.74Y-126.71
X145.79Y-131.83
X145.79Y-134.37
X145.79Y-136.91
X145.79Y-139.45
X147.03Y-115.28
X147.47Y-144.53
X148.06Y-103.69
X149.6Y-157.63
X150.2Y-89.98
X150.38Y-133.46
X150.73Y-108.69
X152.9Y-176.68
X153.24Y-125.78
X167.5Y-192.45
X167.85Y-207.63
X177.95Y-202.41
X181.77Y-172.37
X182.83Y-202.41
X183.33Y-168.93
X189.26Y-185.11
X189.62Y-198.98
X190.5Y-163.45
X190.5Y-165.99
X190.5Y-168.53
X190.5Y-171.07
X193.04Y-163.45
X193.04Y-165.99
X193.04Y-168.53
X193.04Y-171.07
X196.32Y-165.35
X206.44Y-206.81
X211.29Y-165.91
X214.82Y-197.2
X216.32Y-156.43
X227.94Y-157.19
X228.67Y-173.56
X257.97Y-135.1
X258.49Y-123.76
X262.05Y-142.14
X269.81Y-116.25
X270.73Y-98.73
X271.35Y-89.68
X272.68Y-103.54
X273.68Y-131.45
X273.68Y-133.99
X273.68Y-136.53
X273.68Y-139.07
X274.65Y-142.42
X276.22Y-131.45
X276.22Y-133.99
X276.22Y-136.53
X276.22Y-139.07
X277.52Y-128.52
X281.45Y-90.77
X283.Y-114.99
X284.65Y-92.42
X288.16Y-98.3
X288.16Y-100.84
X288.16Y-103.38
X288.16Y-105.92
X290.7Y-98.3
X290.7Y-100.84
X290.7Y-103.38
X290.7Y-105.92
X292.42Y-95.61
T0
M30
