G04 #@! TF.FileFunction,Profile,NP*
%FSLAX46Y46*%
G04 Gerber Fmt 4.6, Leading zero omitted, Abs format (unit mm)*
G04 Created by KiCad (PCBNEW 4.0.5) date 2016 December 23, Friday 11:17:07*
%MOMM*%
%LPD*%
G01*
G04 APERTURE LIST*
%ADD10C,0.150000*%
%ADD11C,0.100000*%
G04 APERTURE END LIST*
D10*
D11*
X205027793Y-150899383D02*
X206248812Y-151012205D01*
X204774882Y-150872079D02*
X205027793Y-150899383D01*
X203297369Y-150685446D02*
X204774882Y-150872079D01*
X202355014Y-150542093D02*
X203297369Y-150685446D01*
X199497805Y-149990169D02*
X200716139Y-150247239D01*
X198699826Y-149804083D02*
X199497805Y-149990169D01*
X197393876Y-149468929D02*
X198699826Y-149804083D01*
X195792038Y-149005159D02*
X197393876Y-149468929D01*
X200716139Y-150247239D02*
X202355014Y-150542093D01*
X194432185Y-148565009D02*
X195792038Y-149005159D01*
X153861269Y-85372378D02*
X153861818Y-85544489D01*
X109950000Y-135210000D02*
X109950000Y-115220000D01*
X109950000Y-135210000D02*
X134210000Y-135210000D01*
X111990000Y-85250000D02*
X153860000Y-85250000D01*
X111990000Y-115220000D02*
X111990000Y-85250000D01*
X109950000Y-115220000D02*
X111990000Y-115220000D01*
X308180000Y-85270000D02*
X266236640Y-85270000D01*
X308180000Y-115250000D02*
X308180000Y-85270000D01*
X310120000Y-115250000D02*
X308180000Y-115250000D01*
X310120000Y-135320000D02*
X310120000Y-115250000D01*
X285840000Y-135320000D02*
X310120000Y-135320000D01*
X285840000Y-210270000D02*
X285840000Y-135320000D01*
X134210000Y-210270000D02*
X285840000Y-210270000D01*
X134210000Y-135210000D02*
X134210000Y-210270000D01*
X153850000Y-85250000D02*
X153850000Y-85251000D01*
X266236640Y-85825023D02*
X266236640Y-85270000D01*
X266217826Y-87022189D02*
X266236640Y-85825023D01*
X266157751Y-88755032D02*
X266217826Y-87022189D01*
X266101213Y-89824962D02*
X266157751Y-88755032D01*
X266010460Y-91151033D02*
X266101213Y-89824962D01*
X265968774Y-91668989D02*
X266010460Y-91151033D01*
X265873127Y-92722506D02*
X265968774Y-91668989D01*
X265733679Y-94033469D02*
X265873127Y-92722506D01*
X265462715Y-96133211D02*
X265733679Y-94033469D01*
X265327710Y-97037950D02*
X265462715Y-96133211D01*
X264938866Y-99311708D02*
X265327710Y-97037950D01*
X264944224Y-99284701D02*
X264938866Y-99311708D01*
X264596124Y-101039549D02*
X264944224Y-99284701D01*
X264277107Y-102483551D02*
X264596124Y-101039549D01*
X264046708Y-103450731D02*
X264277107Y-102483551D01*
X263851056Y-104230462D02*
X264046708Y-103450731D01*
X263562489Y-105320630D02*
X263851056Y-104230462D01*
X263033014Y-107167111D02*
X263562489Y-105320630D01*
X262811267Y-107890769D02*
X263033014Y-107167111D01*
X262462701Y-108978052D02*
X262811267Y-107890769D01*
X262135655Y-109948658D02*
X262462701Y-108978052D01*
X261922918Y-110556962D02*
X262135655Y-109948658D01*
X261615779Y-111406100D02*
X261922918Y-110556962D01*
X261004772Y-113004454D02*
X261615779Y-111406100D01*
X260398526Y-114486941D02*
X261004772Y-113004454D01*
X260175101Y-115010421D02*
X260398526Y-114486941D01*
X259889630Y-115662902D02*
X260175101Y-115010421D01*
X259377436Y-116790917D02*
X259889630Y-115662902D01*
X258711399Y-118183725D02*
X259377436Y-116790917D01*
X258151924Y-119295909D02*
X258711399Y-118183725D01*
X257849561Y-119876955D02*
X258151924Y-119295909D01*
X257080930Y-121296238D02*
X257849561Y-119876955D01*
X256813724Y-121771519D02*
X257080930Y-121296238D01*
X256574926Y-122188856D02*
X256813724Y-121771519D01*
X255993429Y-123177279D02*
X256574926Y-122188856D01*
X255610736Y-123807390D02*
X255993429Y-123177279D01*
X254365435Y-125755715D02*
X255610736Y-123807390D01*
X253950772Y-126372502D02*
X254365435Y-125755715D01*
X253166980Y-127498496D02*
X253950772Y-126372502D01*
X252379388Y-128580877D02*
X253166980Y-127498496D01*
X251748684Y-129414614D02*
X252379388Y-128580877D01*
X250854620Y-130549536D02*
X251748684Y-129414614D01*
X250617168Y-130842159D02*
X250854620Y-130549536D01*
X249958640Y-131635292D02*
X250617168Y-130842159D01*
X249215977Y-132498651D02*
X249958640Y-131635292D01*
X248326753Y-133491397D02*
X249215977Y-132498651D01*
X247807891Y-134051042D02*
X248326753Y-133491397D01*
X247081145Y-134811731D02*
X247807891Y-134051042D01*
X245793777Y-136096256D02*
X247081145Y-134811731D01*
X244953663Y-136893497D02*
X245793777Y-136096256D01*
X244236612Y-137549661D02*
X244953663Y-136893497D01*
X243301916Y-138372837D02*
X244236612Y-137549661D01*
X242408106Y-139127382D02*
X243301916Y-138372837D01*
X241946345Y-139505147D02*
X242408106Y-139127382D01*
X240192503Y-140868557D02*
X241946345Y-139505147D01*
X239138586Y-141635910D02*
X240192503Y-140868557D01*
X238317646Y-142207881D02*
X239138586Y-141635910D01*
X237710370Y-142616915D02*
X238317646Y-142207881D01*
X236468377Y-143417346D02*
X237710370Y-142616915D01*
X235545121Y-143981874D02*
X236468377Y-143417346D01*
X234797104Y-144420765D02*
X235545121Y-143981874D01*
X233483284Y-145152739D02*
X234797104Y-144420765D01*
X232978473Y-145421119D02*
X233483284Y-145152739D01*
X231573740Y-146131395D02*
X232978473Y-145421119D01*
X231349521Y-146239880D02*
X231573740Y-146131395D01*
X230440942Y-146665987D02*
X231349521Y-146239880D01*
X230001618Y-146864350D02*
X230440942Y-146665987D01*
X229561783Y-147058000D02*
X230001618Y-146864350D01*
X228776558Y-147391564D02*
X229561783Y-147058000D01*
X227983708Y-147712773D02*
X228776558Y-147391564D01*
X226737696Y-148186482D02*
X227983708Y-147712773D01*
X225972213Y-148458978D02*
X226737696Y-148186482D01*
X225077505Y-148759896D02*
X225972213Y-148458978D01*
X224262000Y-149017884D02*
X225077505Y-148759896D01*
X222780374Y-149447467D02*
X224262000Y-149017884D01*
X221351687Y-149814679D02*
X222780374Y-149447467D01*
X220498538Y-150012278D02*
X221351687Y-149814679D01*
X219649487Y-150193014D02*
X220498538Y-150012278D01*
X218805359Y-150357094D02*
X219649487Y-150193014D01*
X218396715Y-150430970D02*
X218805359Y-150357094D01*
X217342277Y-150604962D02*
X218396715Y-150430970D01*
X215482134Y-150853910D02*
X217342277Y-150604962D01*
X214298520Y-150974100D02*
X215482134Y-150853910D01*
X213230833Y-151057189D02*
X214298520Y-150974100D01*
X212170144Y-151116038D02*
X213230833Y-151057189D01*
X211509566Y-151140782D02*
X212170144Y-151116038D01*
X210975737Y-151154111D02*
X211509566Y-151140782D01*
X209907230Y-151162903D02*
X210975737Y-151154111D01*
X209506507Y-151160050D02*
X209907230Y-151162903D01*
X208551227Y-151139716D02*
X209506507Y-151160050D01*
X208010456Y-151119747D02*
X208551227Y-151139716D01*
X206248812Y-151012205D02*
X208010456Y-151119747D01*
X193110746Y-148095541D02*
X194432185Y-148565009D01*
X192007591Y-147671429D02*
X193110746Y-148095541D01*
X191268840Y-147370717D02*
X192007591Y-147671429D01*
X189912549Y-146783029D02*
X191268840Y-147370717D01*
X188951596Y-146338134D02*
X189912549Y-146783029D01*
X188001859Y-145874625D02*
X188951596Y-146338134D01*
X187278181Y-145505214D02*
X188001859Y-145874625D01*
X185905310Y-144764836D02*
X187278181Y-145505214D01*
X185033873Y-144267253D02*
X185905310Y-144764836D01*
X184170577Y-143752530D02*
X185033873Y-144267253D01*
X183153763Y-143117669D02*
X184170577Y-143752530D01*
X181988979Y-142351131D02*
X183153763Y-143117669D01*
X180617486Y-141392525D02*
X181988979Y-142351131D01*
X179895080Y-140862240D02*
X180617486Y-141392525D01*
X179425050Y-140507500D02*
X179895080Y-140862240D01*
X178493075Y-139780811D02*
X179425050Y-140507500D01*
X177269137Y-138777582D02*
X178493075Y-139780811D01*
X176655357Y-138252693D02*
X177269137Y-138777582D01*
X176496059Y-138114011D02*
X176655357Y-138252693D01*
X175031422Y-136789699D02*
X176496059Y-138114011D01*
X174673794Y-136452376D02*
X175031422Y-136789699D01*
X174032221Y-135832875D02*
X174673794Y-136452376D01*
X173332556Y-135135571D02*
X174032221Y-135832875D01*
X171970321Y-133709319D02*
X173332556Y-135135571D01*
X170581874Y-132155090D02*
X171970321Y-133709319D01*
X169945700Y-131406293D02*
X170581874Y-132155090D01*
X168889477Y-130108106D02*
X169945700Y-131406293D01*
X167539463Y-128340181D02*
X168889477Y-130108106D01*
X166706251Y-127182065D02*
X167539463Y-128340181D01*
X166263677Y-126544313D02*
X166706251Y-127182065D01*
X165512597Y-125423511D02*
X166263677Y-126544313D01*
X165136925Y-124843666D02*
X165512597Y-125423511D01*
X164567043Y-123937909D02*
X165136925Y-124843666D01*
X163772845Y-122619140D02*
X164567043Y-123937909D01*
X163463124Y-122085680D02*
X163772845Y-122619140D01*
X162704160Y-120728875D02*
X163463124Y-122085680D01*
X162615185Y-120564934D02*
X162704160Y-120728875D01*
X162152403Y-119694565D02*
X162615185Y-120564934D01*
X161982041Y-119366400D02*
X162152403Y-119694565D01*
X161484594Y-118382702D02*
X161982041Y-119366400D01*
X161082491Y-117557993D02*
X161484594Y-118382702D01*
X160743755Y-116841102D02*
X161082491Y-117557993D01*
X160488596Y-116286812D02*
X160743755Y-116841102D01*
X159781517Y-114680500D02*
X160488596Y-116286812D01*
X159119907Y-113071414D02*
X159781517Y-114680500D01*
X158774919Y-112185468D02*
X159119907Y-113071414D01*
X158668567Y-111905183D02*
X158774919Y-112185468D01*
X158607583Y-111742865D02*
X158668567Y-111905183D01*
X158153160Y-110494161D02*
X158607583Y-111742865D01*
X157903042Y-109774857D02*
X158153160Y-110494161D01*
X157808130Y-109495397D02*
X157903042Y-109774857D01*
X157430212Y-108343877D02*
X157808130Y-109495397D01*
X157243984Y-107751602D02*
X157430212Y-108343877D01*
X157147567Y-107437917D02*
X157243984Y-107751602D01*
X157002553Y-106956493D02*
X157147567Y-107437917D01*
X156777147Y-106183511D02*
X157002553Y-106956493D01*
X156673956Y-105818832D02*
X156777147Y-106183511D01*
X156622926Y-105635820D02*
X156673956Y-105818832D01*
X156577418Y-105471066D02*
X156622926Y-105635820D01*
X156514166Y-105239588D02*
X156577418Y-105471066D01*
X156474067Y-105091299D02*
X156514166Y-105239588D01*
X156413397Y-104864599D02*
X156474067Y-105091299D01*
X156360103Y-104663066D02*
X156413397Y-104864599D01*
X156280837Y-104359016D02*
X156360103Y-104663066D01*
X156199797Y-104042608D02*
X156280837Y-104359016D01*
X156131448Y-103771180D02*
X156199797Y-104042608D01*
X156066176Y-103507884D02*
X156131448Y-103771180D01*
X155969354Y-103109585D02*
X156066176Y-103507884D01*
X155916277Y-102887122D02*
X155969354Y-103109585D01*
X155871315Y-102696282D02*
X155916277Y-102887122D01*
X155831481Y-102525317D02*
X155871315Y-102696282D01*
X155779658Y-102300146D02*
X155831481Y-102525317D01*
X155695833Y-101929033D02*
X155779658Y-102300146D01*
X155634104Y-101650013D02*
X155695833Y-101929033D01*
X155590470Y-101449696D02*
X155634104Y-101650013D01*
X155519968Y-101120353D02*
X155590470Y-101449696D01*
X155477123Y-100916623D02*
X155519968Y-101120353D01*
X155409877Y-100591089D02*
X155477123Y-100916623D01*
X155354986Y-100319857D02*
X155409877Y-100591089D01*
X155273269Y-99906279D02*
X155354986Y-100319857D01*
X155210051Y-99577719D02*
X155273269Y-99906279D01*
X155126959Y-99133479D02*
X155210051Y-99577719D01*
X155067880Y-98808368D02*
X155126959Y-99133479D01*
X155007304Y-98466365D02*
X155067880Y-98808368D01*
X154952257Y-98147400D02*
X155007304Y-98466365D01*
X154890090Y-97777046D02*
X154952257Y-98147400D01*
X154860182Y-97594774D02*
X154890090Y-97777046D01*
X154811631Y-97292809D02*
X154860182Y-97594774D01*
X154763499Y-96985537D02*
X154811631Y-97292809D01*
X154728210Y-96754875D02*
X154763499Y-96985537D01*
X154684530Y-96462619D02*
X154728210Y-96754875D01*
X154644178Y-96185495D02*
X154684530Y-96462619D01*
X154611104Y-95952867D02*
X154644178Y-96185495D01*
X154580810Y-95735159D02*
X154611104Y-95952867D01*
X154541357Y-95444500D02*
X154580810Y-95735159D01*
X154500587Y-95134962D02*
X154541357Y-95444500D01*
X154456347Y-94787507D02*
X154500587Y-95134962D01*
X154439823Y-94654374D02*
X154456347Y-94787507D01*
X154431126Y-94583524D02*
X154439823Y-94654374D01*
X154399054Y-94317402D02*
X154431126Y-94583524D01*
X154361339Y-93993935D02*
X154399054Y-94317402D01*
X154329080Y-93707305D02*
X154361339Y-93993935D01*
X154298740Y-93428455D02*
X154329080Y-93707305D01*
X154291218Y-93357819D02*
X154298740Y-93428455D01*
X154254614Y-93004814D02*
X154291218Y-93357819D01*
X154235322Y-92812067D02*
X154254614Y-93004814D01*
X154199680Y-92442275D02*
X154235322Y-92812067D01*
X154164334Y-92055600D02*
X154199680Y-92442275D01*
X154131102Y-91670726D02*
X154164334Y-92055600D01*
X154122390Y-91565925D02*
X154131102Y-91670726D01*
X154099615Y-91283350D02*
X154122390Y-91565925D01*
X154082006Y-91055432D02*
X154099615Y-91283350D01*
X154056317Y-90705849D02*
X154082006Y-91055432D01*
X154039121Y-90458736D02*
X154056317Y-90705849D01*
X154027309Y-90281983D02*
X154039121Y-90458736D01*
X153993984Y-89746057D02*
X154027309Y-90281983D01*
X153985962Y-89607248D02*
X153993984Y-89746057D01*
X153975361Y-89416770D02*
X153985962Y-89607248D01*
X153952156Y-88966057D02*
X153975361Y-89416770D01*
X153939186Y-88688683D02*
X153952156Y-88966057D01*
X153924314Y-88340385D02*
X153939186Y-88688683D01*
X153913516Y-88060901D02*
X153924314Y-88340385D01*
X153898818Y-87628903D02*
X153913516Y-88060901D01*
X153894107Y-87473005D02*
X153898818Y-87628903D01*
X153889713Y-87317219D02*
X153894107Y-87473005D01*
X153886532Y-87196815D02*
X153889713Y-87317219D01*
X153874698Y-86663439D02*
X153886532Y-87196815D01*
X153869509Y-86353383D02*
X153874698Y-86663439D01*
X153866951Y-86164074D02*
X153869509Y-86353383D01*
X153865565Y-86043595D02*
X153866951Y-86164074D01*
X153863355Y-85802752D02*
X153865565Y-86043595D01*
X153861818Y-85544489D02*
X153863355Y-85802752D01*
X153861110Y-85250000D02*
X153861269Y-85372378D01*
D10*
X380029500Y-182452500D02*
X380093000Y-182516000D01*
X380029500Y-182452500D02*
X380093000Y-182516000D01*
M02*
