  0
SECTION
  2
HEADER
  9
$ACADVER
  1
AC1009
  9
$INSBASE
 10
0.0
 20
0.0
 30
0.0
  9
$EXTMIN
 10
0.0
 20
0.0
 30
0.0
  9
$EXTMAX
 10
0.0
 20
0.0
 30
0.0
  0
ENDSEC
  0
SECTION
  2
TABLES
  0
TABLE
  2
VPORT
 70
0
  0
ENDTAB
  0
TABLE
  2
LTYPE
 70
1
  0
LTYPE
  2
CONTINUOUS
 70
0
  3
Solid line
 72
65
 73
0
 40
0.0
  0
ENDTAB
  0
TABLE
  2
LAYER
 70
1
  0
LAYER
  2
0
 70
64
 62
7
  6
continuous
  0
ENDTAB
  0
TABLE
  2
STYLE
 70
1
  0
STYLE
  2
STANDARD
 70
0
 40
0
 41
1.0
 50
0.0
 71
0
 42
1
 3
ARIAL.TTF
 4

  0
ENDTAB
  0
TABLE
  2
VIEW
 70
0
  0
ENDTAB
  0
ENDSEC
  0
SECTION
  2
BLOCKS
  0
ENDSEC
  0
SECTION
  2
ENTITIES
  0
POLYLINE
  8
Layer_1
 62
0
 70
0
 66
1
 10
0.0
 20
0.0
 30
0.0
  0
VERTEX
  8
Layer_1
 10
55.626867
 20
103.570004
 30
0.0
  0
VERTEX
  8
Layer_1
 10
60.5850806047
 20
104.038726389
 30
0.0
  0
VERTEX
  8
Layer_1
 10
65.5121532571
 20
104.631015729
 30
0.0
  0
VERTEX
  8
Layer_1
 10
70.3769437421
 20
105.470438693
 30
0.0
  0
VERTEX
  8
Layer_1
 10
75.1483108426
 20
106.680561882
 30
0.0
  0
VERTEX
  8
Layer_1
 10
79.7942426854
 20
108.35620798
 30
0.0
  0
VERTEX
  8
Layer_1
 10
84.2793842583
 20
110.481828955
 30
0.0
  0
VERTEX
  8
Layer_1
 10
88.5675782496
 20
113.015389586
 30
0.0
  0
VERTEX
  8
Layer_1
 10
92.6226629866
 20
115.914878981
 30
0.0
  0
VERTEX
  8
Layer_1
 10
96.4070663736
 20
119.146153925
 30
0.0
  0
VERTEX
  8
Layer_1
 10
99.8797887069
 20
122.694191229
 30
0.0
  0
VERTEX
  8
Layer_1
 10
102.999319617
 20
126.546816317
 30
0.0
  0
VERTEX
  8
Layer_1
 10
105.724252833
 20
130.691434272
 30
0.0
  0
VERTEX
  8
Layer_1
 10
108.017078723
 20
135.099715685
 30
0.0
  0
VERTEX
  8
Layer_1
 10
109.845264343
 20
139.723235467
 30
0.0
  0
VERTEX
  8
Layer_1
 10
111.176600915
 20
144.512259556
 30
0.0
  0
VERTEX
  8
Layer_1
 10
111.981314291
 20
149.41635703
 30
0.0
  0
VERTEX
  8
Layer_1
 10
112.249574174
 20
154.379388474
 30
0.0
  0
VERTEX
  8
Layer_1
 10
111.981313823
 20
159.342419867
 30
0.0
  0
VERTEX
  8
Layer_1
 10
111.176600028
 20
164.24651719
 30
0.0
  0
VERTEX
  8
Layer_1
 10
109.845263121
 20
169.035541044
 30
0.0
  0
VERTEX
  8
Layer_1
 10
108.017077257
 20
173.659060554
 30
0.0
  0
VERTEX
  8
Layer_1
 10
105.724251214
 20
178.067341708
 30
0.0
  0
VERTEX
  8
Layer_1
 10
102.999317935
 20
182.21195947
 30
0.0
  0
VERTEX
  8
Layer_1
 10
99.8797870263
 20
186.06458443
 30
0.0
  0
VERTEX
  8
Layer_1
 10
96.4070647116
 20
189.61262164
 30
0.0
  0
VERTEX
  8
Layer_1
 10
92.6226613128
 20
192.843896491
 30
0.0
  0
VERTEX
  8
Layer_1
 10
88.5675764939
 20
195.743385764
 30
0.0
  0
VERTEX
  8
Layer_1
 10
84.2793823591
 20
198.27694624
 30
0.0
  0
VERTEX
  8
Layer_1
 10
79.7942406092
 20
200.402567026
 30
0.0
  0
VERTEX
  8
Layer_1
 10
75.1483085837
 20
202.078212902
 30
0.0
  0
VERTEX
  8
Layer_1
 10
70.3769413157
 20
203.288335846
 30
0.0
  0
VERTEX
  8
Layer_1
 10
65.5121506656
 20
204.127758657
 30
0.0
  0
VERTEX
  8
Layer_1
 10
60.5850778292
 20
204.720048097
 30
0.0
  0
VERTEX
  8
Layer_1
 10
55.626864
 20
205.188771
 30
0.0
  0
SEQEND
  8
Layer_1
  0
ENDSEC
  0
EOF
