M48
;DRILL file {KiCad 4.0.5} date 2017 January 05, Thursday 14:50:27
;FORMAT={-:-/ absolute / inch / decimal}
FMAT,2
INCH,TZ
T1C0.025
T2C0.031
T3C0.039
T4C0.039
T5C0.040
%
G90
G05
M72
T1
X5.1764Y-3.3996
X5.1783Y-3.663
X5.2867Y-3.9878
X5.3681Y-3.4968
X5.3685Y-3.6075
X5.426Y-5.1701
X5.5012Y-6.5183
X5.5016Y-5.7331
X5.5114Y-4.3776
X5.52Y-4.993
X5.5212Y-4.8547
X5.5212Y-4.2697
X5.5254Y-4.0242
X5.5335Y-6.6425
X5.565Y-4.9921
X5.5661Y-3.9917
X5.5661Y-4.2713
X5.5661Y-4.3803
X5.5661Y-4.8563
X5.6874Y-5.4185
X5.6898Y-3.4992
X5.7374Y-5.0465
X5.8267Y-5.0388
X5.9126Y-7.4976
X5.913Y-7.3048
X5.9417Y-4.098
X5.9431Y-4.2134
X5.976Y-3.7905
X6.024Y-5.6409
X6.0307Y-5.2301
X6.0539Y-5.8768
X6.0557Y-5.5756
X6.0882Y-5.2626
X6.0882Y-5.8457
X6.1164Y-4.1654
X6.2229Y-6.0409
X6.2547Y-6.0091
X6.394Y-5.4113
X6.4839Y-5.3886
X6.5717Y-6.3815
X6.6453Y-7.2728
X6.648Y-6.3311
X6.7157Y-7.2921
X7.3979Y-6.6552
X7.4419Y-7.498
X7.4445Y-7.5429
X7.4602Y-6.6535
X7.6772Y-6.2413
X7.7689Y-6.1921
X7.7982Y-6.8818
X7.8307Y-6.8453
X7.8307Y-7.1571
X7.8632Y-7.1114
X8.213Y-6.7969
X8.2139Y-6.8419
X8.3783Y-7.0315
X8.3843Y-7.1559
X10.2Y-5.4217
X10.3264Y-5.3774
X10.4736Y-5.6925
X10.5008Y-5.7283
X10.5075Y-4.2531
X10.566Y-5.6171
X10.5874Y-4.8413
X10.6252Y-5.6039
X10.784Y-5.0969
X10.8012Y-5.5051
X10.8472Y-5.563
X10.9029Y-4.1108
X10.9354Y-4.0768
X10.9362Y-5.5681
X10.963Y-5.5051
X11.0733Y-4.105
X11.1051Y-4.0732
X11.1969Y-4.2224
X11.2193Y-4.1713
X11.2626Y-3.9038
X11.4677Y-3.9157
X11.5492Y-3.8374
T2
X4.8929Y-3.837
X4.8929Y-3.937
X4.8929Y-4.037
X4.8929Y-4.137
X5.1929Y-3.837
X5.1929Y-3.937
X5.1929Y-4.037
X5.1929Y-4.137
X5.3429Y-3.4291
X5.3429Y-3.7291
X5.4429Y-3.4291
X5.4429Y-3.7291
X5.5004Y-5.1713
X5.5004Y-5.2713
X5.5004Y-5.3713
X5.5004Y-5.4713
X5.5429Y-3.4291
X5.5429Y-3.7291
X5.6429Y-3.4291
X5.6429Y-3.7291
X5.7374Y-3.837
X5.7374Y-3.937
X5.7374Y-4.037
X5.7374Y-4.137
X5.8004Y-5.1713
X5.8004Y-5.2713
X5.8004Y-5.3713
X5.8004Y-5.4713
X5.8846Y-4.7496
X5.8846Y-5.0496
X5.9846Y-4.7496
X5.9846Y-5.0496
X6.0374Y-3.837
X6.0374Y-3.937
X6.0374Y-4.037
X6.0374Y-4.137
X6.0846Y-4.7496
X6.0846Y-5.0496
X6.1846Y-4.7496
X6.1846Y-5.0496
X6.272Y-5.1449
X6.272Y-5.2449
X6.272Y-5.3449
X6.272Y-5.4449
X6.572Y-5.1449
X6.572Y-5.2449
X6.572Y-5.3449
X6.572Y-5.4449
X7.2835Y-6.398
X7.2835Y-6.498
X7.2835Y-6.598
X7.2835Y-6.698
X7.5835Y-6.398
X7.5835Y-6.498
X7.5835Y-6.598
X7.5835Y-6.698
X7.7256Y-5.9992
X7.7256Y-6.2992
X7.8256Y-5.9992
X7.8256Y-6.2992
X7.9256Y-5.9992
X7.9256Y-6.2992
X8.0256Y-5.9992
X8.0256Y-6.2992
X8.1161Y-6.3992
X8.1161Y-6.4992
X8.1161Y-6.5992
X8.1161Y-6.6992
X8.4161Y-6.3992
X8.4161Y-6.4992
X8.4161Y-6.5992
X8.4161Y-6.6992
X9.9717Y-5.1449
X9.9717Y-5.2449
X9.9717Y-5.3449
X9.9717Y-5.4449
X10.2717Y-5.1449
X10.2717Y-5.2449
X10.2717Y-5.3449
X10.2717Y-5.4449
X10.3634Y-4.7433
X10.3634Y-5.0433
X10.4634Y-4.7433
X10.4634Y-5.0433
X10.5291Y-3.8366
X10.5291Y-3.9366
X10.5291Y-4.0366
X10.5291Y-4.1366
X10.5634Y-4.7433
X10.5634Y-5.0433
X10.6634Y-4.7433
X10.6634Y-5.0433
X10.737Y-5.148
X10.737Y-5.248
X10.737Y-5.348
X10.737Y-5.448
X10.8291Y-3.8366
X10.8291Y-3.9366
X10.8291Y-4.0366
X10.8291Y-4.1366
X10.9252Y-3.4299
X10.9252Y-3.7299
X11.0252Y-3.4299
X11.0252Y-3.7299
X11.037Y-5.148
X11.037Y-5.248
X11.037Y-5.348
X11.037Y-5.448
X11.1252Y-3.4299
X11.1252Y-3.7299
X11.2252Y-3.4299
X11.2252Y-3.7299
X11.3382Y-3.8358
X11.3382Y-3.9358
X11.3382Y-4.0358
X11.3382Y-4.1358
X11.6382Y-3.8358
X11.6382Y-3.9358
X11.6382Y-4.0358
X11.6382Y-4.1358
T3
X5.813Y-8.0004
X5.813Y-8.1004
X5.913Y-8.0004
X5.913Y-8.1004
X6.013Y-8.0004
X6.013Y-8.1004
X6.113Y-8.0004
X6.113Y-8.1004
X6.213Y-8.0004
X6.213Y-8.1004
X9.3709Y-7.9579
X9.3709Y-8.0579
X9.4709Y-7.9579
X9.4709Y-8.0579
X9.5709Y-7.9579
X9.5709Y-8.0579
X9.6709Y-7.9579
X9.6709Y-8.0579
X9.7709Y-7.9579
X9.7709Y-8.0579
X9.8709Y-7.9579
X9.8709Y-8.0579
X9.9709Y-7.9579
X9.9709Y-8.0579
X10.0709Y-7.9579
X10.0709Y-8.0579
X10.1709Y-7.9579
X10.1709Y-8.0579
X10.2709Y-7.9579
X10.2709Y-8.0579
X10.3709Y-7.9579
X10.3709Y-8.0579
X10.4709Y-7.9579
X10.4709Y-8.0579
X10.5709Y-7.9579
X10.5709Y-8.0579
X10.6709Y-7.9579
X10.6709Y-8.0579
X10.7709Y-7.9579
X10.7709Y-8.0579
X10.8709Y-7.9579
X10.8709Y-8.0579
X10.9709Y-7.9579
X10.9709Y-8.0579
T4
X6.8571Y-8.1661
X7.2571Y-8.1661
T5
X4.7846Y-3.4366
X4.8819Y-5.0965
X5.0512Y-3.9358
X5.0689Y-3.5949
X5.0776Y-3.7311
X5.2713Y-4.6035
X5.3406Y-4.2173
X5.4354Y-5.041
X5.4954Y-3.921
X5.5201Y-8.0252
X5.5854Y-3.551
X5.6606Y-5.2559
X5.7402Y-7.6402
X5.8122Y-4.5429
X5.8554Y-3.591
X5.8654Y-5.7728
X5.8854Y-3.881
X5.9354Y-5.361
X6.1181Y-4.939
X6.1201Y-7.6098
X6.1248Y-6.6988
X6.3205Y-8.0783
X6.3654Y-4.951
X6.4072Y-5.2418
X6.4264Y-8.0465
X6.4264Y-8.1465
X6.5264Y-8.0465
X6.5264Y-8.1465
X6.7138Y-8.1472
X6.715Y-7.6949
X6.7254Y-7.111
X7.0059Y-7.9689
X7.0554Y-6.921
X7.0754Y-5.871
X7.198Y-7.9689
X7.3354Y-8.031
X7.4454Y-6.491
X7.5154Y-7.661
X7.7054Y-6.551
X7.8949Y-8.0299
X7.9354Y-6.601
X7.9454Y-6.141
X8.0954Y-7.351
X8.2654Y-6.501
X8.4754Y-6.101
X9.1354Y-7.331
X10.1154Y-5.231
X10.2054Y-4.951
X10.4154Y-4.911
X10.5554Y-4.401
X10.6654Y-3.501
X10.7354Y-3.881
X10.7754Y-5.711
X10.8854Y-3.561
X10.9254Y-5.231
X10.9354Y-4.821
X10.9554Y-4.381
X10.9654Y-5.791
X11.0754Y-7.821
X11.3654Y-3.661
X11.4654Y-3.491
X11.4854Y-4.081
X11.5054Y-4.661
X11.5954Y-3.701
X11.6654Y-5.201
X11.7354Y-3.441
T0
M30
